<svg xmlns="http://www.w3.org/2000/svg" xmlns:xlink="http://www.w3.org/1999/xlink" id="Layer_1" x="0" y="0" version="1.1" viewBox="0 0 297.3 297.3" xml:space="preserve" style="enable-background:new 0 0 297.3 297.3"><style type="text/css">.st0,.st1{stroke:#323232}.st0,.st1,.st2{fill:none;stroke-miterlimit:10}.st0{stroke-width:5;stroke-dasharray:12.3684,12.3684}.st1{stroke-width:15}.st2{stroke:#00a8d9;stroke-width:13}.st3{fill:#ff5069}.st3,.st4{stroke:#323232;stroke-width:6;stroke-miterlimit:10}.st4,.st5{fill:#00a8d9}.st6{fill:none;stroke:#00a8d9;stroke-width:19;stroke-miterlimit:10}</style><line x1="259.9" x2="259.9" y1="253.6" y2="73.5" class="st0"/><line x1="37.4" x2="259.9" y1="251.9" y2="251.9" class="st0"/><path d="M37.4,251.9C-0.9,169.7,32.1,77.8,98.5,45.5c49.7-24.2,114.1-13.1,161.4,28" class="st1"/><path d="M-518-335" class="st2"/><ellipse cx="37.4" cy="251.9" class="st3" rx="37.4" ry="37.4" transform="matrix(0.1602 -0.9871 0.9871 0.1602 -217.2236 248.4117)"/><circle cx="259.9" cy="251.9" r="25.4" class="st4"/><g><path d="M160.7,52c0-1.2-0.2,0.6-0.6,5.3c-0.6,5.9-1,13.4-1.4,22.6c-0.4,10.4-0.6,22.3-0.6,35.5 c0,21.9,0.6,37.5,1.8,46.8c0.1,1,0.2,1.6,0.2,1.9c0,0.6-0.4,0.9-1.2,1c-1.9,0.3-8.9,0.4-21.1,0.4c-2.9,0-4.5-0.6-4.9-1.7 c-0.1-2-0.2-4-0.3-6.1c-0.1-0.4-0.3-0.8-0.6-1.3c-0.3,0.2-0.7,0.5-1.2,1c-5.7,5.6-12.9,8.4-21.5,8.4c-11.2,0-20.2-3.9-26.9-11.8 c-6.4-7.5-9.6-16.9-9.6-28.4c0-11.6,3.2-21.1,9.5-28.6c6.7-8,15.7-11.9,27.1-11.9c8,0,14.3,2.5,18.7,7.6c0.7,0.9,1.3,1.3,1.6,1.3 c0.5,0,0.7-0.7,0.7-2.1c0-4.1-0.1-10.2-0.3-18.3c-0.2-8.1-0.3-14.2-0.3-18.2c0-1.5,0.4-2.4,1.3-2.6c3.4-0.2,8.1-0.5,14-1 c10.6-1.3,15.3-2,14.1-2C160.2,50,160.7,50.7,160.7,52z M130.7,125.2c0-4.2-1.5-7.9-4.4-11c-2.9-3.2-6.5-4.7-10.6-4.7 c-4.4,0-7.8,1.6-10.4,4.7c-2.6,3.2-3.9,6.9-3.9,11.4c0,4.3,1.3,7.9,3.9,10.9c2.7,3.2,6.1,4.8,10.4,4.8c4.2,0,7.8-1.6,10.7-4.8 C129.3,133.3,130.7,129.5,130.7,125.2z" class="st5"/></g><line x1="232.3" x2="124.3" y1="131.6" y2="222.2" class="st6"/><polygon points="115.1 204 143.6 232 109.3 236.9" class="st5"/><polygon points="243.9 148.2 217.5 118.9 251.5 116.1" class="st5"/></svg>