<svg xmlns="http://www.w3.org/2000/svg" xmlns:xlink="http://www.w3.org/1999/xlink" style="enable-background:new 0 0 297.3 297.3" id="Layer_1" x="0" y="0" version="1.1" viewBox="0 0 297.3 297.3" xml:space="preserve"><style type="text/css">.st0,.st1{fill:none;stroke:#323232;stroke-miterlimit:10}.st2{fill:none}.st2,.st3,.st4,.st5{stroke-miterlimit:10}.st0{stroke-width:5;stroke-dasharray:12.3684,12.3684}.st1{stroke-width:15}.st2{stroke:#00a8d9;stroke-width:13}.st3,.st4{fill:#ff5069;stroke:#323232;stroke-width:6}.st4{fill:#00a8d9}.st5{fill:none;stroke:#00a8d9;stroke-width:23}</style><line x1="259.9" x2="259.9" y1="253.6" y2="73.5" class="st0"/><line x1="37.4" x2="259.9" y1="251.9" y2="251.9" class="st0"/><path d="M37.4,251.9C-0.9,169.7,32.1,77.8,98.5,45.5c49.7-24.2,114.1-13.1,161.4,28" class="st1"/><path d="M-518-335" class="st2"/><ellipse cx="37.4" cy="251.9" class="st3" rx="37.4" ry="37.4" transform="matrix(0.1602 -0.9871 0.9871 0.1602 -217.2236 248.4117)"/><circle cx="259.9" cy="251.9" r="25.4" class="st4"/><path d="M207.3,186.1c-3.1-8.2-18.5-45.8-56.7-59.5c-10.8-3.9-21-5-29.3-4.9c-13.5,1.2-24.3,11.4-26.2,24.2	c-2,14,7.1,28,21.6,31.8c9.1,1.4,21.1,1.7,33.9-2.5c43.8-14.1,55.8-66.5,56.7-70.6" class="st5"/></svg>