<?xml version="1.0" encoding="utf-8"?>
<!--
    GAD - Geographic Aided Design

     begin      : May 05, 2019
     copyright  : (c) 2019 by German Perez-Casanova Gomez
     email      : icearqu@gmail.com


    GAD  This program is free software and is distributed in
    the hope that it will be useful, but without any warranty,
    you can redistribute it and/or modify it under the terms
    of version 3 of the GNU General Public License (GPL v3) as
    published by the Free Software Foundation (www.gnu.org)
-->
<svg version="1.1" id="Layer_1" xmlns="http://www.w3.org/2000/svg" xmlns:xlink="http://www.w3.org/1999/xlink" x="0px" y="0px"
	 viewBox="0 0 297.3 297.3" style="enable-background:new 0 0 297.3 297.3;" xml:space="preserve">
<style type="text/css">
	.st0{fill:none;stroke:#323232;stroke-width:5;stroke-miterlimit:10;stroke-dasharray:12.3684,12.3684;}
	.st1{fill:none;stroke:#323232;stroke-width:15;stroke-miterlimit:10;}
	.st2{fill:none;stroke:#00A8D9;stroke-width:13;stroke-miterlimit:10;}
	.st3{fill:#00A8D9;stroke:#323232;stroke-width:6;stroke-miterlimit:10;}
	.st4{fill:#FF5069;stroke:#323232;stroke-width:6;stroke-miterlimit:10;}
	.st5{fill:none;stroke:#00A8D9;stroke-width:23;stroke-miterlimit:10;}
</style>
<line class="st0" x1="259.9" y1="253.6" x2="259.9" y2="73.5"/>
<line class="st0" x1="37.4" y1="251.9" x2="259.9" y2="251.9"/>
<path class="st1" d="M37.4,251.9C-0.9,169.7,32.1,77.8,98.5,45.5c49.7-24.2,114.1-13.1,161.4,28"/>
<path class="st2" d="M-518-335"/>
<ellipse transform="matrix(0.1602 -0.9871 0.9871 0.1602 -217.1719 248.4381)" class="st3" cx="37.4" cy="251.8" rx="37.4" ry="37.4"/>
<circle class="st4" cx="259.9" cy="251.9" r="25.4"/>
<path class="st5" d="M207.3,186.1c-3.1-8.2-18.5-45.8-56.7-59.5c-10.8-3.9-21-5-29.3-4.9c-13.5,1.2-24.3,11.4-26.2,24.2
	c-2,14,7.1,28,21.6,31.8c9.1,1.4,21.1,1.7,33.9-2.5c43.8-14.1,55.8-66.5,56.7-70.6"/>
</svg>
