<svg xmlns="http://www.w3.org/2000/svg" xmlns:xlink="http://www.w3.org/1999/xlink" style="enable-background:new 0 0 297.3 297.3" id="Layer_1" x="0" y="0" version="1.1" viewBox="0 0 297.3 297.3" xml:space="preserve"><style type="text/css">.st0,.st1{fill:none;stroke:#323232;stroke-miterlimit:10}.st2{fill:none}.st2,.st3,.st4,.st5{stroke-miterlimit:10}.st0{stroke-width:5;stroke-dasharray:12.3684,12.3684}.st1{stroke-width:15}.st2{stroke:#00a8d9;stroke-width:13}.st3,.st4{fill:#ff5069;stroke:#323232;stroke-width:6}.st4{fill:#00a8d9}.st5{fill:none;stroke:#00a8d9;stroke-width:19}.st6{fill:#00a8d9}</style><line x1="259.9" x2="259.9" y1="251.8" y2="71.7" class="st0"/><line x1="37.4" x2="259.9" y1="253.6" y2="253.6" class="st0"/><path d="M37.4,251.9C-0.9,169.7,32.1,77.8,98.5,45.5c49.7-24.2,114.1-13.1,161.4,28" class="st1"/><path d="M-518-335" class="st2"/><ellipse cx="37.4" cy="251.8" class="st3" rx="37.4" ry="37.4" transform="matrix(0.1602 -0.9871 0.9871 0.1602 -217.1719 248.4381)"/><ellipse cx="259.9" cy="73.5" class="st4" rx="37.4" ry="37.4" transform="matrix(0.1602 -0.9871 0.9871 0.1602 145.7139 318.2689)"/><ellipse cx="259.9" cy="255.3" class="st4" rx="23.6" ry="23.6"/><line x1="232.4" x2="68.8" y1="234.6" y2="118.7" class="st5"/><polygon points="83.9 105 64.4 139.9 50.7 108.1" class="st6"/><g><path d="M190.1,87.6c0,2.3-1.3,3.4-3.8,3.4c-1.1,0-2.7-0.1-4.9-0.2c-2.1-0.1-3.7-0.2-4.8-0.2c-4.8,0-8.1,0.8-9.9,2.3 c-1.7,1.5-2.6,4.6-2.6,9.2c0,2.5,0,6.3,0.1,11.4c0.1,5.1,0.1,8.9,0.1,11.4c0,1.7,0.1,4.2,0.3,7.6c0.2,3.4,0.3,5.8,0.3,7.5 c0,1.4-1,2.2-2.9,2.4c-2.8,0.2-7.1,0.3-12.8,0.3c-5.5,0-10-0.2-13.3-0.5c-1.9-0.2-2.9-1.2-2.9-2.9c0-4.7,0-11.6,0.1-20.9 c0.1-9.3,0.1-16.3,0.1-20.9c0-13.7-1.3-25-3.8-33.8c-0.1-0.5-0.2-1-0.2-1.3c0-0.9,0.4-1.5,1.3-1.7c3.2-0.3,7.9-1,14.1-1.9 c9.2-1.8,14-2.7,14.2-2.7c1,0,1.7,1.8,2,5.5c0.3,3.7,0.8,5.5,1.6,5.5c-0.8,0,1.6-1.5,7.2-4.6c5.6-3.1,11-4.6,16.2-4.6 c3.3,0,4.9,0.7,4.9,2.1c0,1.7-0.2,4.1-0.5,7.2c-0.3,3.3-0.6,5.7-0.6,7.2c0,1.7,0,3.9,0.1,6.7C190.1,84.2,190.1,86.5,190.1,87.6z" class="st6"/></g></svg>