<svg xmlns="http://www.w3.org/2000/svg" xmlns:xlink="http://www.w3.org/1999/xlink" style="enable-background:new 0 0 297.3 297.3" id="Layer_1" x="0" y="0" version="1.1" viewBox="0 0 297.3 297.3" xml:space="preserve"><style type="text/css">.st0,.st1,.st2{fill:none;stroke:#323232;stroke-width:15;stroke-miterlimit:10}.st1,.st2{fill:#323232;stroke:#00a8d9;stroke-width:16}.st2{stroke:#ff5069}.st3,.st4{fill:none}.st3,.st4,.st5,.st6,.st7{stroke-miterlimit:10}.st3{stroke:#323232;stroke-width:5;stroke-dasharray:12.3684,12.3684}.st4{stroke:#00a8d9;stroke-width:13}.st5,.st6{fill:#00a8d9;stroke:#323232;stroke-width:6}.st6{fill:#ff5069}.st7{fill:none;stroke:#00a8d9;stroke-width:19}.st8{fill:#00a8d9}</style><ellipse cx="148.7" cy="149.3" class="st0" rx="140.7" ry="140.7"/><line x1="260.7" x2="48.6" y1="288.6" y2="288.8" class="st1"/><line x1="8" x2="8" y1="267" y2="13.3" class="st2"/><line x1="417.3" x2="639.8" y1="241.2" y2="241.2" class="st3"/><path d="M417.3,239.5C379,157.3,412,65.4,478.4,33.1c49.7-24.2,114.1-13.1,161.4,28" class="st0"/><path d="M-518-335" class="st4"/><ellipse cx="463.7" cy="-122.4" class="st5" rx="37.4" ry="37.4" transform="matrix(0.1602 -0.9871 0.9871 0.1602 510.2505 354.9535)"/><ellipse cx="21.6" cy="145.1" class="st6" rx="21.6" ry="21.6"/><ellipse cx="148.7" cy="275.9" class="st5" rx="21.6" ry="21.6"/><line x1="147.9" x2="69.3" y1="149.6" y2="65.8" class="st7"/><ellipse cx="148.6" cy="148.6" class="st5" rx="27.5" ry="27.5"/><polygon points="92.1 60.3 63.2 87.7 59.4 53.3" class="st8"/><g><path d="M191.2,58.7c0,2.3-1.3,3.4-3.8,3.4c-1.1,0-2.7-0.1-4.9-0.2c-2.1-0.1-3.7-0.2-4.8-0.2c-4.8,0-8.1,0.8-9.9,2.3 c-1.7,1.5-2.6,4.6-2.6,9.2c0,2.5,0,6.3,0.1,11.4s0.1,8.9,0.1,11.4c0,1.7,0.1,4.2,0.3,7.6s0.3,5.8,0.3,7.5c0,1.4-1,2.2-2.9,2.4 c-2.8,0.2-7.1,0.3-12.8,0.3c-5.5,0-10-0.2-13.3-0.5c-1.9-0.2-2.9-1.2-2.9-2.9c0-4.7,0-11.6,0.1-20.9c0.1-9.3,0.1-16.3,0.1-20.9 c0-13.7-1.3-25-3.8-33.8c-0.1-0.5-0.2-1-0.2-1.3c0-0.9,0.4-1.5,1.3-1.7c3.2-0.3,7.9-1,14.1-1.9c9.2-1.8,14-2.7,14.2-2.7 c1,0,1.7,1.8,2,5.5s0.8,5.5,1.6,5.5c-0.8,0,1.6-1.5,7.2-4.6c5.6-3.1,11-4.6,16.2-4.6c3.3,0,4.9,0.7,4.9,2.1c0,1.7-0.2,4.1-0.5,7.2 c-0.3,3.3-0.6,5.7-0.6,7.2c0,1.7,0,3.9,0.1,6.7C191.2,55.3,191.2,57.6,191.2,58.7z" class="st8"/></g></svg>