<svg xmlns="http://www.w3.org/2000/svg" xmlns:xlink="http://www.w3.org/1999/xlink" id="Layer_1" x="0" y="0" version="1.1" viewBox="0 0 297.3 297.3" xml:space="preserve" style="enable-background:new 0 0 297.3 297.3"><style type="text/css">.st0,.st1,.st2{fill:none;stroke:#323232;stroke-width:15;stroke-miterlimit:10}.st1,.st2{fill:#323232;stroke:#00a8d9;stroke-width:16}.st2{stroke:#ff5069}.st3,.st4{fill:none}.st3,.st4,.st5,.st6{stroke-miterlimit:10}.st3{stroke:#323232;stroke-width:5;stroke-dasharray:12.3684,12.3684}.st4{stroke:#00a8d9;stroke-width:13}.st5,.st6{fill:#00a8d9;stroke:#323232;stroke-width:6}.st6{fill:#ff5069}</style><ellipse cx="148.7" cy="149.3" class="st0" rx="140.7" ry="140.7"/><line x1="276" x2="64" y1="8.5" y2="8.7" class="st1"/><line x1="8" x2="8" y1="267" y2="13.3" class="st2"/><line x1="417.3" x2="639.8" y1="241.2" y2="241.2" class="st3"/><path d="M417.3,239.5C379,157.3,412,65.4,478.4,33.1c49.7-24.2,114.1-13.1,161.4,28" class="st0"/><path d="M-518-335" class="st4"/><ellipse cx="463.7" cy="-122.4" class="st5" rx="37.4" ry="37.4" transform="matrix(0.1602 -0.9871 0.9871 0.1602 510.2505 354.9535)"/><line x1="199" x2="297.3" y1="297.3" y2="203.1" class="st1"/><ellipse cx="21.6" cy="145.1" class="st6" rx="21.6" ry="21.6"/><ellipse cx="170.2" cy="20.4" class="st5" rx="21.6" ry="21.6"/><ellipse cx="235" cy="243.9" class="st5" rx="21.6" ry="21.6"/></svg>