<svg xmlns="http://www.w3.org/2000/svg" xmlns:xlink="http://www.w3.org/1999/xlink" style="enable-background:new 0 0 297.3 297.3" id="Layer_1" x="0" y="0" version="1.1" viewBox="0 0 297.3 297.3" xml:space="preserve"><style type="text/css">.st0,.st1,.st2,.st3{fill:none;stroke-miterlimit:10}.st0{stroke:#00a8d9;stroke-width:19}.st1,.st2{stroke:#323232}.st1{stroke-width:5;stroke-dasharray:12.3684,12.3684}.st2{stroke-width:15}.st3{stroke:#00a8d9;stroke-width:13}.st4{fill:#ff5069}.st4,.st5{stroke:#323232;stroke-width:6;stroke-miterlimit:10}.st5,.st6{fill:#00a8d9}</style><line x1="253.4" x2="159.6" y1="216.1" y2="149.6" class="st0"/><line x1="148.3" x2="54.5" y1="144.9" y2="78.5" class="st0"/><line x1="639.8" x2="639.8" y1="239.4" y2="59.3" class="st1"/><line x1="417.3" x2="639.8" y1="241.2" y2="241.2" class="st1"/><path d="M417.3,239.5C379,157.3,412,65.4,478.4,33.1c49.7-24.2,114.1-13.1,161.4,28" class="st2"/><path d="M-518-335" class="st3"/><ellipse cx="417.2" cy="239.5" class="st4" rx="37.4" ry="37.4" transform="matrix(0.1602 -0.9871 0.9871 0.1602 114.0368 612.9539)"/><ellipse cx="463.8" cy="-122.4" class="st5" rx="37.4" ry="37.4" transform="matrix(0.1602 -0.9871 0.9871 0.1602 510.2477 355.0337)"/><ellipse cx="152.5" cy="148.6" class="st4" rx="27.5" ry="27.5"/><polygon points="75.8 68.5 52.9 101.2 42.4 68.2" class="st6"/><ellipse cx="149.6" cy="150.3" class="st2" rx="143.7" ry="143.7"/><polygon points="228.6 223.7 255.1 193.7 261.7 227.7" class="st6"/><g><path d="M114.7,140c0-1-0.2,0.5-0.6,4.7c-0.5,5.2-0.9,11.9-1.2,20c-0.4,9.2-0.6,19.7-0.6,31.5 c0,19.4,0.5,33.3,1.6,41.5c0.1,0.9,0.1,1.5,0.1,1.7c0,0.5-0.4,0.8-1.1,0.9c-1.7,0.2-7.9,0.4-18.7,0.4c-2.5,0-4-0.5-4.4-1.5 c-0.1-1.8-0.2-3.6-0.3-5.4c0-0.4-0.2-0.8-0.6-1.1c-0.3,0.1-0.6,0.4-1.1,0.8c-5.1,5-11.4,7.5-19.1,7.5c-9.9,0-17.9-3.5-23.9-10.4 c-5.7-6.6-8.5-15-8.5-25.1c0-10.3,2.8-18.7,8.4-25.3c5.9-7.1,13.9-10.6,24-10.6c7.1,0,12.6,2.3,16.6,6.8c0.7,0.8,1.1,1.1,1.4,1.1 c0.4,0,0.6-0.6,0.6-1.8c0-3.6-0.1-9-0.3-16.2c-0.2-7.2-0.3-12.6-0.3-16.2c0-1.4,0.4-2.1,1.1-2.3c3-0.1,7.2-0.4,12.4-0.8 c9.4-1.2,13.6-1.8,12.5-1.8C114.1,138.2,114.7,138.8,114.7,140z M88.1,204.9c0-3.7-1.3-7-3.9-9.8c-2.6-2.8-5.7-4.2-9.4-4.2 c-3.9,0-6.9,1.4-9.2,4.2c-2.3,2.8-3.4,6.2-3.4,10.1c0,3.8,1.2,7,3.5,9.7c2.4,2.8,5.4,4.2,9.2,4.2c3.8,0,6.9-1.4,9.5-4.2 C86.8,212,88.1,208.7,88.1,204.9z" class="st6"/></g></svg>