<?xml version="1.0" encoding="utf-8"?>
<!--
    GAD - Geographic Aided Design

     begin      : May 05, 2019
     copyright  : (c) 2019 by German Perez-Casanova Gomez
     email      : icearqu@gmail.com


    GAD  This program is free software and is distributed in
    the hope that it will be useful, but without any warranty,
    you can redistribute it and/or modify it under the terms
    of version 3 of the GNU General Public License (GPL v3) as
    published by the Free Software Foundation (www.gnu.org)
-->
<svg version="1.1" id="Layer_1" xmlns="http://www.w3.org/2000/svg" xmlns:xlink="http://www.w3.org/1999/xlink" x="0px" y="0px"
	 viewBox="0 0 297.3 297.3" style="enable-background:new 0 0 297.3 297.3;" xml:space="preserve">
<style type="text/css">
	.st0{fill:none;stroke:#00A8D9;stroke-width:19;stroke-miterlimit:10;}
	.st1{fill:none;stroke:#323232;stroke-width:5;stroke-miterlimit:10;stroke-dasharray:12.3684,12.3684;}
	.st2{fill:none;stroke:#323232;stroke-width:15;stroke-miterlimit:10;}
	.st3{fill:none;stroke:#00A8D9;stroke-width:13;stroke-miterlimit:10;}
	.st4{fill:#FF5069;stroke:#323232;stroke-width:6;stroke-miterlimit:10;}
	.st5{fill:#00A8D9;stroke:#323232;stroke-width:6;stroke-miterlimit:10;}
	.st6{fill:#00A8D9;}
</style>
<line class="st0" x1="253.4" y1="216.1" x2="159.6" y2="149.6"/>
<line class="st0" x1="148.3" y1="144.9" x2="54.5" y2="78.5"/>
<line class="st1" x1="639.8" y1="239.4" x2="639.8" y2="59.3"/>
<line class="st1" x1="417.3" y1="241.2" x2="639.8" y2="241.2"/>
<path class="st2" d="M417.3,239.5C379,157.3,412,65.4,478.4,33.1c49.7-24.2,114.1-13.1,161.4,28"/>
<path class="st3" d="M-518-335"/>
<ellipse transform="matrix(0.1602 -0.9871 0.9871 0.1602 114.0368 612.9539)" class="st4" cx="417.2" cy="239.5" rx="37.4" ry="37.4"/>
<ellipse transform="matrix(0.1602 -0.9871 0.9871 0.1602 510.2477 355.0337)" class="st5" cx="463.8" cy="-122.4" rx="37.4" ry="37.4"/>
<ellipse class="st4" cx="152.5" cy="148.6" rx="27.5" ry="27.5"/>
<polygon class="st6" points="75.8,68.5 52.9,101.2 42.4,68.2 "/>
<ellipse class="st2" cx="149.6" cy="150.3" rx="143.7" ry="143.7"/>
<polygon class="st6" points="228.6,223.7 255.1,193.7 261.7,227.7 "/>
<g>
	<path class="st6" d="M114.7,140c0-1-0.2,0.5-0.6,4.7c-0.5,5.2-0.9,11.9-1.2,20c-0.4,9.2-0.6,19.7-0.6,31.5
		c0,19.4,0.5,33.3,1.6,41.5c0.1,0.9,0.1,1.5,0.1,1.7c0,0.5-0.4,0.8-1.1,0.9c-1.7,0.2-7.9,0.4-18.7,0.4c-2.5,0-4-0.5-4.4-1.5
		c-0.1-1.8-0.2-3.6-0.3-5.4c0-0.4-0.2-0.8-0.6-1.1c-0.3,0.1-0.6,0.4-1.1,0.8c-5.1,5-11.4,7.5-19.1,7.5c-9.9,0-17.9-3.5-23.9-10.4
		c-5.7-6.6-8.5-15-8.5-25.1c0-10.3,2.8-18.7,8.4-25.3c5.9-7.1,13.9-10.6,24-10.6c7.1,0,12.6,2.3,16.6,6.8c0.7,0.8,1.1,1.1,1.4,1.1
		c0.4,0,0.6-0.6,0.6-1.8c0-3.6-0.1-9-0.3-16.2c-0.2-7.2-0.3-12.6-0.3-16.2c0-1.4,0.4-2.1,1.1-2.3c3-0.1,7.2-0.4,12.4-0.8
		c9.4-1.2,13.6-1.8,12.5-1.8C114.1,138.2,114.7,138.8,114.7,140z M88.1,204.9c0-3.7-1.3-7-3.9-9.8c-2.6-2.8-5.7-4.2-9.4-4.2
		c-3.9,0-6.9,1.4-9.2,4.2c-2.3,2.8-3.4,6.2-3.4,10.1c0,3.8,1.2,7,3.5,9.7c2.4,2.8,5.4,4.2,9.2,4.2c3.8,0,6.9-1.4,9.5-4.2
		C86.8,212,88.1,208.7,88.1,204.9z"/>
</g>
</svg>
