<svg xmlns="http://www.w3.org/2000/svg" xmlns:xlink="http://www.w3.org/1999/xlink" id="Capa_1" x="0" y="0" version="1.1" viewBox="0 0 59 59" xml:space="preserve" style="enable-background:new 0 0 59 59"><style type="text/css">.st0{fill:#00a8d9;stroke:#323232;stroke-width:.5;stroke-miterlimit:10}</style><g><path d="M30.6,20.6V0.3c0-0.6-0.5-1.3-1.1-1.3s-1.1,0.7-1.1,1.3v20.3c-3.7,0.5-6.6,3.7-6.6,7.6s2.9,7,6.6,7.6v21 c0,0.6,0.5,1.3,1.1,1.3s1.1-0.6,1.1-1.3V35.7c3.7-0.5,6.6-3.7,6.6-7.6S34.3,21.1,30.6,20.6z" class="st0"/><path d="M9.3,35.7V1.4c0-0.6-0.5-1.2-1.1-1.2S7.1,0.8,7.1,1.4v34.3c-3.7,0.5-6.6,3.7-6.6,7.6s2.9,7,6.6,7.6v6.8 c0,0.6,0.5,1.4,1.1,1.4s1.1-0.8,1.1-1.4v-6.8c3.7-0.5,6.6-3.7,6.6-7.6S13,36.2,9.3,35.7z" class="st0"/><path d="M58.4,15c0-3.8-2.9-7-6.6-7.6V1.5c0-0.6-0.5-1.5-1.1-1.5s-1.1,1-1.1,1.6v5.9C46,8,43.1,11.2,43.1,15 s2.9,7,6.6,7.6v35.2c0,0.6,0.5,1.2,1.1,1.2s1.1-0.6,1.1-1.2V22.6C55.6,22,58.4,18.9,58.4,15z" class="st0"/></g></svg>