<?xml version="1.0" encoding="utf-8"?>
<!--
    GAD - Geographic Aided Design

     begin      : May 05, 2019
     copyright  : (c) 2019 by German Perez-Casanova Gomez
     email      : icearqu@gmail.com


    GAD  This program is free software and is distributed in
    the hope that it will be useful, but without any warranty,
    you can redistribute it and/or modify it under the terms
    of version 3 of the GNU General Public License (GPL v3) as
    published by the Free Software Foundation (www.gnu.org)
-->
<svg version="1.1" id="Layer_1" xmlns="http://www.w3.org/2000/svg" xmlns:xlink="http://www.w3.org/1999/xlink" x="0px" y="0px"
	 viewBox="0 0 297.3 297.3" style="enable-background:new 0 0 297.3 297.3;" xml:space="preserve">
<style type="text/css">
	.st0{fill:none;stroke:#00A8D9;stroke-width:13;stroke-miterlimit:10;}
	.st1{fill:#00A8D9;stroke:#323232;stroke-width:4;stroke-linecap:round;stroke-linejoin:round;stroke-miterlimit:10;}
</style>
<path class="st0" d="M-518-335"/>
<path class="st1" d="M146.5,3.3C67.6,3.3,3.8,67.2,3.8,146s63.9,142.7,142.7,142.7S289.2,224.9,289.2,146S225.3,3.3,146.5,3.3z
	 M162.3,242.4c-5.2,5.5-11.6,8.2-19.1,8.2c-7.5,0-13.9-2.7-19.1-8.2c-5.2-5.5-7.8-12-7.8-19.5c0-7.5,2.6-13.9,7.8-19.3
	c5.2-5.3,11.6-8,19.1-8c7.5,0,13.9,2.7,19.1,8c5.2,5.3,7.8,11.7,7.8,19.3C170.2,230.4,167.6,236.9,162.3,242.4z M180.4,150.4
	c-14.7,8.4-22.8,16.9-24,25.5c-0.3,2.2-0.5,4.5-0.7,6.7c-0.7,2.1-2.4,3.1-5.3,3.1c-9.9,0-16.9,0.6-21.2,1.8
	c-0.9,0.3-1.6,0.4-2.1,0.4c-3.5,0-5.3-4.8-5.3-14.4c0-8.3,4.8-18.6,14.4-30.8c9.6-12.3,14.4-22.5,14.4-30.8
	c0-12.6-6.7-18.9-20.1-18.9c-8.5,0-19.5,3.3-33.1,10c-4.2,0-6.3-12.5-6.3-37.4c0-2.7,0.1-4.8,0.4-6.2c1.4-6.5,9.5-11.6,24.5-15.2
	c10.8-2.6,21.3-4,31.3-4c17.7,0,32.3,4.9,43.9,14.8c12.3,10.5,18.5,24.4,18.5,41.9C209.9,121.3,200.1,139.1,180.4,150.4z"/>
</svg>
