<svg xmlns="http://www.w3.org/2000/svg" xmlns:xlink="http://www.w3.org/1999/xlink" id="Layer_1" x="0" y="0" version="1.1" viewBox="0 0 297.3 297.3" xml:space="preserve" style="enable-background:new 0 0 297.3 297.3"><style type="text/css">.st0{fill:#00a8d9;stroke:#323232;stroke-width:2;stroke-miterlimit:10}</style><g><path d="M157.7,96.3c-8.7,11.3-14.4,22.7-16.3,32.1c10.6-1.9,19.4-0.4,24.9,5.1c15.3,15.3-0.1,55.6-34.5,90 c-34.4,34.4-74.7,49.8-90,34.5s0.1-55.6,34.5-90c1.6-1.6,3.3-3.2,4.9-4.8c0.2-13.2,3.6-28,10-43.3c-11.5,7.5-22.9,16.8-33.7,27.5 C9.7,195.4-7.8,255.7,18.7,282.1c26.4,26.4,86.7,9,134.6-38.9c47.9-47.9,65.3-108.1,38.9-134.6C183.6,100.1,171.6,96.2,157.7,96.3z" class="st0"/></g><g><path d="M138.9,202.6c8.7-11.3,14.4-22.7,16.3-32.1c-10.6,1.9-19.4,0.4-24.9-5.2c-15.3-15.4,0.2-55.6,34.6-89.9 c34.4-34.3,74.7-49.7,90-34.3s-0.2,55.6-34.6,89.9c-1.6,1.6-3.3,3.2-5,4.8c-0.2,13.2-3.7,28-10,43.3c11.5-7.5,22.9-16.7,33.7-27.5 c48-47.8,65.5-108,39.1-134.5c-26.4-26.5-86.6-9.1-134.6,38.7c-48,47.8-65.5,108-39.1,134.5C112.9,198.7,124.9,202.7,138.9,202.6z" class="st0"/></g></svg>