<svg xmlns="http://www.w3.org/2000/svg" xmlns:xlink="http://www.w3.org/1999/xlink" style="enable-background:new 0 0 297.3 297.3" id="Layer_1" x="0" y="0" version="1.1" viewBox="0 0 297.3 297.3" xml:space="preserve"><style type="text/css">.st0,.st1,.st2,.st3{fill:none;stroke-miterlimit:10}.st0{stroke:#00a8d9;stroke-width:19}.st1,.st2{stroke:#323232}.st1{stroke-width:5;stroke-dasharray:12.3684,12.3684}.st2{stroke-width:15}.st3{stroke:#00a8d9;stroke-width:13}.st4{fill:#ff5069}.st4,.st5{stroke:#323232;stroke-width:6;stroke-miterlimit:10}.st5,.st6{fill:#00a8d9}</style><line x1="-1127.3" x2="-1221.1" y1="77.8" y2="11.4" class="st0"/><line x1="-635.8" x2="-635.8" y1="172.3" y2="-7.8" class="st1"/><line x1="-858.3" x2="-635.8" y1="174.1" y2="174.1" class="st1"/><path d="M-858.3,172.4C-896.6,90.2-863.6-1.7-797.2-34c49.7-24.2,114.1-13.1,161.4,28" class="st2"/><path d="M-518-335" class="st3"/><ellipse cx="-858.3" cy="172.4" class="st4" rx="37.4" ry="37.4"/><ellipse cx="-811.9" cy="-189.5" class="st5" rx="37.4" ry="37.4" transform="matrix(0.1602 -0.9871 0.9871 0.1602 -494.7621 -960.5178)"/><ellipse cx="-1123.1" cy="81.5" class="st4" rx="27.5" ry="27.5"/><polygon points="-1199.8 1.4 -1222.7 34.1 -1233.2 1.1" class="st6"/><g><path d="M-1096.8-10.7c0,2.3-1.3,3.4-3.8,3.4c-1.1,0-2.7-0.1-4.9-0.2c-2.1-0.1-3.7-0.2-4.8-0.2c-4.8,0-8.1,0.8-9.9,2.3 c-1.7,1.5-2.6,4.6-2.6,9.2c0,2.5,0,6.3,0.1,11.4c0.1,5.1,0.1,8.9,0.1,11.4c0,1.7,0.1,4.2,0.3,7.6c0.2,3.4,0.3,5.8,0.3,7.5 c0,1.4-1,2.2-2.9,2.4c-2.8,0.2-7.1,0.3-12.8,0.3c-5.5,0-10-0.2-13.3-0.5c-1.9-0.2-2.9-1.2-2.9-2.9c0-4.7,0-11.6,0.1-20.9 c0.1-9.3,0.1-16.3,0.1-20.9c0-13.7-1.3-25-3.8-33.8c-0.1-0.5-0.2-1-0.2-1.3c0-0.9,0.4-1.5,1.3-1.7c3.2-0.3,7.9-1,14.1-1.9 c9.2-1.8,14-2.7,14.2-2.7c1,0,1.7,1.8,2,5.5s0.8,5.5,1.6,5.5c-0.8,0,1.6-1.5,7.2-4.6c5.6-3.1,11-4.6,16.2-4.6 c3.3,0,4.9,0.7,4.9,2.1c0,1.7-0.2,4.1-0.5,7.2c-0.3,3.3-0.6,5.7-0.6,7.2c0,1.7,0,3.9,0.1,6.7C-1096.8-14.1-1096.8-11.8-1096.8-10.7 z" class="st6"/></g><ellipse cx="-1126" cy="83.2" class="st2" rx="143.7" ry="143.7"/><line x1="67" x2="257" y1="223.6" y2="223.6" class="st0"/><ellipse cx="115.6" cy="386.6" class="st5" rx="37.4" ry="37.4" transform="matrix(0.1602 -0.9871 0.9871 0.1602 -284.5804 438.8105)"/><line x1="73" x2="247.5" y1="80.7" y2="50" class="st0"/><path d="M248,271H67c-19.9,0-36-16.1-36-36V79.9c0-17.3,12.3-32.2,29.4-35.4l175.7-32.9c2.2-0.4,4.4-0.6,6.6-0.6h5.3	c19.9,0,36,16.1,36,36v188C284,254.9,267.9,271,248,271L248,271z" class="st2"/><line x1="247.5" x2="247.5" y1="40.7" y2="223.6" class="st0"/><line x1="73" x2="73" y1="70.7" y2="222.6" class="st0"/></svg>