<svg xmlns="http://www.w3.org/2000/svg" xmlns:xlink="http://www.w3.org/1999/xlink" id="Layer_1" x="0" y="0" version="1.1" viewBox="0 0 297.3 297.3" xml:space="preserve" style="enable-background:new 0 0 297.3 297.3"><style type="text/css">.st0{fill:#00a8d9}.st1{fill:none;stroke:#323232;stroke-width:2;stroke-miterlimit:10}</style><g id="Layer_2"><g><g><path d="M281.5,59.1l15.8-10l-10-22.6l-17.2,4.4l-3.3-3.3l3.9-18.1L248.2,0L238,15.7l-3.9-0.1L224.7,0l-23,9.4 l3.8,18.3l-3,2.5l-17.6-4.1l-9.3,23l15.2,9.9l-0.2,4.4l-15,8.8l9.7,23.5l17.5-4.3l3.6,3.5l-4.8,17.5l23.1,9.7l9.5-15.5l5.2,0.1 l8.7,15.5l23.2-9.7l-3.8-18l2.7-2.3l17.4,4.1l9.7-23.5l-15.8-10.1V59.1z M236.4,84.9c-12.7,0-23-10.3-23-23c0-12.7,10.3-23,23-23 s23,10.3,23,23C259.5,74.6,249.2,84.9,236.4,84.9z" class="st0"/></g><g><path d="M281.5,59.1l15.8-10l-10-22.6l-17.2,4.4l-3.3-3.3l3.9-18.1L248.2,0L238,15.7l-3.9-0.1L224.7,0l-23,9.4 l3.8,18.3l-3,2.5l-17.6-4.1l-9.3,23l15.2,9.9l-0.2,4.4l-15,8.8l9.7,23.5l17.5-4.3l3.6,3.5l-4.8,17.5l23.1,9.7l9.5-15.5l5.2,0.1 l8.7,15.5l23.2-9.7l-3.8-18l2.7-2.3l17.4,4.1l9.7-23.5l-15.8-10.1V59.1z M236.4,84.9c-12.7,0-23-10.3-23-23c0-12.7,10.3-23,23-23 s23,10.3,23,23C259.5,74.6,249.2,84.9,236.4,84.9z" class="st1"/></g></g><g><g><path d="M159.4,138.8l23.1-14.6L167.8,91l-25.2,6.5l-4.8-4.8l5.7-26.5l-33-14l-14.8,23L90,75L76.1,52.2L42.5,66 L48,92.8l-4.3,3.7l-25.8-6L4.1,124.2l22.3,14.5l-0.3,6.4L4.1,158l14.2,34.4l25.6-6.3l5.3,5.2l-7,25.6L76,231l13.9-22.8l7.7,0.1 l12.7,22.7l34-14.2l-5.6-26.4l4-3.3l25.6,6l14.2-34.4l-23.1-14.8V138.8z M93.3,176.7c-18.6,0-33.7-15.1-33.7-33.7 c0-18.6,15.1-33.7,33.7-33.7s33.7,15.1,33.7,33.7C127,161.6,111.9,176.7,93.3,176.7z" class="st0"/></g><g><path d="M159.4,138.8l23.1-14.6L167.8,91l-25.2,6.5l-4.8-4.8l5.7-26.5l-33-14l-14.8,23L90,75L76.1,52.2L42.5,66 L48,92.8l-4.3,3.7l-25.8-6L4.1,124.2l22.3,14.5l-0.3,6.4L4.1,158l14.2,34.4l25.6-6.3l5.3,5.2l-7,25.6L76,231l13.9-22.8l7.7,0.1 l12.7,22.7l34-14.2l-5.6-26.4l4-3.3l25.6,6l14.2-34.4l-23.1-14.8V138.8z M93.3,176.7c-18.6,0-33.7-15.1-33.7-33.7 c0-18.6,15.1-33.7,33.7-33.7s33.7,15.1,33.7,33.7C127,161.6,111.9,176.7,93.3,176.7z" class="st1"/></g></g></g><g><g><path d="M273.7,229.1l15.8-10l-10-22.6l-17.2,4.4l-3.3-3.3l3.9-18.1l-22.5-9.5l-10.1,15.7l-3.9-0.1l-9.4-15.6l-23,9.4 l3.8,18.3l-3,2.5l-17.6-4.1l-9.3,23l15.2,9.9l-0.2,4.4l-15,8.8l9.7,23.5l17.4-4.3l3.6,3.5l-4.8,17.4l23.1,9.7l9.5-15.5l5.2,0.1 l8.7,15.5l23.2-9.7l-3.8-18l2.7-2.3l17.4,4.1l9.7-23.5l-15.8-10.1V229.1z M228.6,254.9c-12.7,0-23-10.3-23-23s10.3-23,23-23 c12.7,0,23,10.3,23,23S241.3,254.9,228.6,254.9z" class="st0"/></g><g><path d="M273.7,229.1l15.8-10l-10-22.6l-17.2,4.4l-3.3-3.3l3.9-18.1l-22.5-9.5l-10.1,15.7l-3.9-0.1l-9.4-15.6l-23,9.4 l3.8,18.3l-3,2.5l-17.6-4.1l-9.3,23l15.2,9.9l-0.2,4.4l-15,8.8l9.7,23.5l17.4-4.3l3.6,3.5l-4.8,17.4l23.1,9.7l9.5-15.5l5.2,0.1 l8.7,15.5l23.2-9.7l-3.8-18l2.7-2.3l17.4,4.1l9.7-23.5l-15.8-10.1V229.1z M228.6,254.9c-12.7,0-23-10.3-23-23s10.3-23,23-23 c12.7,0,23,10.3,23,23S241.3,254.9,228.6,254.9z" class="st1"/></g></g></svg>