<?xml version="1.0" encoding="utf-8"?>
<!--
    GAD - Geographic Aided Design

     begin      : May 05, 2019
     copyright  : (c) 2019 by German Perez-Casanova Gomez
     email      : icearqu@gmail.com


    GAD  This program is free software and is distributed in
    the hope that it will be useful, but without any warranty,
    you can redistribute it and/or modify it under the terms
    of version 3 of the GNU General Public License (GPL v3) as
    published by the Free Software Foundation (www.gnu.org)
-->
<svg version="1.1" id="Layer_1" xmlns="http://www.w3.org/2000/svg" xmlns:xlink="http://www.w3.org/1999/xlink" x="0px" y="0px"
	 viewBox="0 0 297.3 297.3" style="enable-background:new 0 0 297.3 297.3;" xml:space="preserve">
<style type="text/css">
	.st0{fill:none;stroke:#323232;stroke-width:8;stroke-miterlimit:10;}
	.st1{fill:none;stroke:#00A8D9;stroke-width:13;stroke-miterlimit:10;}
	.st2{fill:#00A8D9;stroke:#323232;stroke-width:3;stroke-linecap:round;stroke-linejoin:round;stroke-miterlimit:10;}
	.st3{fill:#00A8D9;stroke:#323232;stroke-width:8;stroke-linecap:round;stroke-linejoin:round;stroke-miterlimit:10;}
	.st4{fill:none;stroke:#323232;stroke-width:6;stroke-miterlimit:10;}
	.st5{fill:none;stroke:#323232;stroke-width:6;stroke-miterlimit:10;stroke-dasharray:12.3158,12.3158;}
	.st6{fill:none;stroke:#323232;stroke-width:8;stroke-miterlimit:10;stroke-dasharray:12.3684,12.3684;}
	.st7{fill:#00A8D9;stroke:#323232;stroke-width:2;stroke-miterlimit:10;}
	.st8{fill:#323232;}
</style>
<path class="st0" d="M190,90.6c-39,0-75,0-114,0"/>
<path class="st1" d="M-518-335"/>
<g>
	<path class="st2" d="M148.9,199.4c0,0.5-0.4,0.9-1.1,1.1c-0.9,0.2-3.5,0.3-7.9,0.3c-4.1,0-6.7-0.1-7.9-0.3c-1-0.2-1.6-0.8-1.8-1.9
		c-1-4.1-1.7-6.3-2.3-6.6c-0.5-0.2-4.3-0.3-11.4-0.3c-4.8,0-7.4,0.1-7.7,0.4c-0.5,0.5-1,2-1.6,4.6c-0.5,2.4-1.2,3.6-2,3.8
		c-1,0.2-4.2,0.3-9.7,0.3c-4.4,0-6.5-0.4-6.5-1.2c0-0.7,3.2-9.8,9.6-27.3c7-18.9,10.8-29.2,11.4-31.1c0.3-1.1,0.7-1.6,1.2-1.6
		c0.8,0,2,0.1,3.6,0.2c1.6,0.1,2.8,0.2,3.6,0.2c0.8,0,1.9,0,3.4-0.1c1.5-0.1,2.6-0.1,3.4-0.1c0.5,0,1,0.5,1.5,1.4
		c1.4,3,5.5,13.2,12.2,30.7C145.5,189.5,148.9,198.7,148.9,199.4z M118.7,160.6c-0.6,1.3-1.6,4-3,8.2c-1.5,4.4-2.3,7-2.3,7.8
		c0,0.5,0.9,0.8,2.6,0.9c0.9,0.1,2.3,0.1,4.4,0.1c1.9,0,2.9-0.2,3.1-0.7c0.1-0.1,0.1-0.3,0.1-0.6c0-0.9-0.7-3.5-2-7.8
		C120.2,164.3,119.3,161.7,118.7,160.6z"/>
	<path class="st2" d="M203.8,182.1c0,5.2-1.6,9.6-4.9,13c-3.7,4-10.3,5.9-19.6,5.9c-0.7,0-1.7,0-3.1,0c-1.4,0-2.4,0-3,0
		c-10.5,0-16.8-0.2-18.7-0.6c-0.8-0.2-1.2-0.6-1.2-1.3c0-3,0.2-7.7,0.5-13.8c0.4-6.2,0.5-10.8,0.5-13.9c0-3.3-0.2-9.5-0.5-18.6
		c-0.1-2.3-0.2-5.8-0.5-10.5l0-0.6c0-0.5,0.4-0.9,1.3-1c0.9-0.1,4.2-0.2,9.9-0.2c9.1,0,14.4,0,15.9,0.1c7,0.3,12.2,1.4,15.5,3.4
		c4.4,2.7,6.6,7.3,6.6,13.7c0,1.7-0.5,3.5-1.5,5.3c-0.7,1.3-1.7,2.7-2.9,4c-1.1,1.2-1.6,1.7-1.6,1.6c0,0.2,0.4,0.5,1.1,0.9
		c2,1.1,3.6,2.9,4.7,5.4C203.2,177.2,203.8,179.6,203.8,182.1z M185.4,158c0-2.4-1.2-4.1-3.7-4.9c-1.4-0.4-3.6-0.6-6.7-0.6
		c-3.1,0-4.6,0.2-4.6,0.7c0,0.5-0.1,1.4-0.1,2.5c-0.1,1.1-0.1,1.9-0.1,2.5c0,2.8,0.2,4.4,0.7,4.8c0.3,0.3,2.1,0.4,5.4,0.4
		C182.3,163.3,185.4,161.5,185.4,158z M186.7,181.9c0-2.6-1.1-4.3-3.2-5.2c-1.4-0.6-3.6-0.9-6.7-0.9c-3.7,0-5.7,0.1-6,0.4
		c-0.3,0.3-0.5,2-0.5,5.2c0,3.4,0.2,5.2,0.6,5.6c0.4,0.4,2.4,0.5,6.1,0.5c3.1,0,5.2-0.2,6.5-0.7C185.6,186,186.7,184.4,186.7,181.9z
		"/>
	<path class="st2" d="M259,190.9c0,0.5-0.3,1.1-0.9,1.8c-5.2,6.2-12.2,9.4-20.9,9.4c-8.9,0-16.1-3-21.6-9.1
		c-5.4-5.9-8.1-13.3-8.1-22.2c0-8.7,2.6-16,7.9-22c5.5-6.3,12.5-9.5,21-9.5c9.2,0,16.5,2.8,21.7,8.5c0.6,0.6,0.9,1.2,0.9,1.7
		c0,0.5-1,2.5-3,6c-2,3.5-3.2,5.4-3.7,5.8c-0.2,0.2-0.5,0.3-0.9,0.3c-0.1,0-0.9-0.6-2.1-1.7c-1.5-1.4-3-2.4-4.5-3.2
		c-2.2-1.1-4.6-1.7-7-1.7c-4.2,0-7.5,1.6-10,4.7c-2.3,2.9-3.5,6.5-3.5,10.8c0,4.3,1.2,8,3.5,10.9c2.5,3.2,5.8,4.8,10,4.8
		c2.5,0,4.8-0.5,7-1.6c1.5-0.7,2.9-1.7,4.4-3c1.3-1.1,1.9-1.6,2.1-1.6c0.3,0,0.6,0.2,0.9,0.5c0.5,0.5,1.7,2.3,3.7,5.3
		C258,188.8,259,190.6,259,190.9z"/>
</g>
<path class="st3" d="M76,178.1V25c-14.9-6.5-31.7-3.2-41.3,7.7c-10.2,11.5-8,26.5-7.7,28.6c0,61.3,0,122.5,0,183.8
	c1.5-20.6,12.4-37.8,28.3-43.7c7.9-2.9,15.4-2.5,20.7-1.5C76,192.6,76,185.3,76,178.1z"/>
<path class="st0" d="M27,245.1c0.1,2.1,1.6,19.2,17,29.6c14.4,9.7,29.8,5.8,32,5.2c66.4,0,132.7,0,199.1,0V90.6
	c-24.3,0-45.9,0-70.3,0"/>
<g>
	<g>
		<line class="st4" x1="68.4" y1="208.6" x2="68.4" y2="210.2"/>
		<line class="st5" x1="68.4" y1="213.5" x2="68.4" y2="270.6"/>
		<line class="st4" x1="68.4" y1="272.3" x2="68.4" y2="273.9"/>
	</g>
</g>
<g>
	<g>
		<line class="st0" x1="35.3" y1="242.8" x2="40.6" y2="242.8"/>
		<line class="st6" x1="51.6" y1="242.8" x2="244.5" y2="242.8"/>
		<line class="st0" x1="250" y1="242.8" x2="255.3" y2="242.8"/>
	</g>
</g>
<circle class="st7" cx="68.4" cy="242" r="15.8"/>
<path class="st8" d="M240.1,0l-87.6,96.7l28.7,25.4l86.2-99.2L240.1,0z M202.2,90.6l-20.9,23.8l-5.1-4.5l16.7-19.3 M192.9,90.6
	l62-71.5l5.5,5l-58.3,66.5"/>
<path class="st8" d="M149.4,104l-15.6,40.6l42.4-18.4L149.4,104z M163.9,123.4l2.9,2.3l-26.4,12.7L163.9,123.4z"/>
</svg>
