<?xml version="1.0" encoding="utf-8"?>
<!--
    GAD - Geographic Aided Design

     begin      : May 05, 2019
     copyright  : (c) 2019 by German Perez-Casanova Gomez
     email      : icearqu@gmail.com


    GAD  This program is free software and is distributed in
    the hope that it will be useful, but without any warranty,
    you can redistribute it and/or modify it under the terms
    of version 3 of the GNU General Public License (GPL v3) as
    published by the Free Software Foundation (www.gnu.org)
-->
<svg version="1.1" id="Layer_1" xmlns="http://www.w3.org/2000/svg" xmlns:xlink="http://www.w3.org/1999/xlink" x="0px" y="0px"
	 viewBox="0 0 297.3 297.3" style="enable-background:new 0 0 297.3 297.3;" xml:space="preserve">
<style type="text/css">
	.st0{fill:none;stroke:#00A8D9;stroke-width:13;stroke-miterlimit:10;}
	.st1{fill:#00A8D9;stroke:#323232;stroke-width:3;stroke-linecap:round;stroke-linejoin:round;stroke-miterlimit:10;}
	.st2{fill:#00A8D9;}
	.st3{fill:#323232;}
	.st4{fill:#40DB68;stroke:#323232;stroke-width:2;stroke-linecap:round;stroke-linejoin:round;stroke-miterlimit:10;}
	.st5{fill:#FF5069;}
</style>
<path class="st0" d="M-518-335"/>
<path class="st1" d="M25.2,97.1l102.9,54c4.2,2.2,9.3,2.2,13.6,0.1L247.1,97c10.7-5.5,10.6-20.8-0.1-26.2L143,18.2
	c-4.2-2.1-9.1-2.1-13.3,0L25.4,70.9C14.8,76.3,14.6,91.5,25.2,97.1z"/>
<g>
	<polygon class="st2" points="135,204.6 10.2,137.1 19.7,119.5 135,181.9 250.3,119.5 259.8,137.1 	"/>
	<path class="st3" d="M135,205.6c-0.2,0-0.3,0-0.5-0.1L9.7,138c-0.2-0.1-0.4-0.3-0.5-0.6c-0.1-0.3,0-0.5,0.1-0.8l9.5-17.6
		c0.3-0.5,0.9-0.7,1.4-0.4L135,180.7l114.8-62.1c0.2-0.1,0.5-0.2,0.8-0.1c0.3,0.1,0.5,0.2,0.6,0.5l9.5,17.6c0.1,0.2,0.2,0.5,0.1,0.8
		c-0.1,0.3-0.2,0.5-0.5,0.6l-124.8,67.5C135.3,205.6,135.2,205.6,135,205.6z M11.5,136.7L135,203.5l123.5-66.8l-8.6-15.8
		l-114.4,61.9c-0.3,0.2-0.7,0.2-1,0L20.1,120.9L11.5,136.7z"/>
</g>
<g>
	<polygon class="st2" points="136.2,250.4 11.4,182.9 20.9,165.3 136.2,227.7 251.5,165.3 261,182.9 	"/>
	<path class="st3" d="M136.2,251.4c-0.2,0-0.3,0-0.5-0.1L10.9,183.8c-0.2-0.1-0.4-0.3-0.5-0.6c-0.1-0.3,0-0.5,0.1-0.8l9.5-17.6
		c0.3-0.5,0.9-0.7,1.4-0.4l114.8,62.1L251,164.5c0.2-0.1,0.5-0.2,0.8-0.1c0.3,0.1,0.5,0.2,0.6,0.5l9.5,17.6c0.1,0.2,0.2,0.5,0.1,0.8
		c-0.1,0.3-0.2,0.5-0.5,0.6l-124.8,67.5C136.5,251.4,136.4,251.4,136.2,251.4z M12.7,182.5l123.5,66.8l123.5-66.8l-8.6-15.8
		l-114.4,61.9c-0.3,0.2-0.7,0.2-1,0L21.3,166.7L12.7,182.5z"/>
</g>
<g>
	<polygon class="st2" points="136.2,295.8 11.4,228.3 20.9,210.7 136.2,273.1 251.5,210.7 261,228.3 	"/>
	<path class="st3" d="M136.2,296.8c-0.2,0-0.3,0-0.5-0.1L10.9,229.2c-0.2-0.1-0.4-0.3-0.5-0.6c-0.1-0.3,0-0.5,0.1-0.8l9.5-17.6
		c0.3-0.5,0.9-0.7,1.4-0.4L136.2,272L251,209.9c0.2-0.1,0.5-0.2,0.8-0.1c0.3,0.1,0.5,0.2,0.6,0.5l9.5,17.6c0.1,0.2,0.2,0.5,0.1,0.8
		c-0.1,0.3-0.2,0.5-0.5,0.6l-124.8,67.5C136.5,296.8,136.4,296.8,136.2,296.8z M12.7,227.9l123.5,66.8l123.5-66.8l-8.6-15.8
		L136.7,274c-0.3,0.2-0.7,0.2-1,0L21.3,212.1L12.7,227.9z"/>
</g>
<path class="st4" d="M262.8,101"/>
<g>
	<polygon class="st3" points="255.3,6.7 291,36.5 178.6,165.9 141.1,132.8 	"/>
	<polygon class="st3" points="137.1,142.3 172,171.3 116.7,195.3 	"/>
	<polygon class="st5" points="172,150 274.7,31.6 281.9,38.1 178.7,155.9 	"/>
	<polygon class="st5" points="125.3,187.3 156,167.7 159.7,170.7 	"/>
</g>
</svg>
