<?xml version="1.0" encoding="utf-8"?>
<!--
    GAD - Geographic Aided Design

     begin      : May 05, 2019
     copyright  : (c) 2019 by German Perez-Casanova Gomez
     email      : icearqu@gmail.com


    GAD  This program is free software and is distributed in
    the hope that it will be useful, but without any warranty,
    you can redistribute it and/or modify it under the terms
    of version 3 of the GNU General Public License (GPL v3) as
    published by the Free Software Foundation (www.gnu.org)
-->
<svg version="1.1" id="Layer_1" xmlns="http://www.w3.org/2000/svg" xmlns:xlink="http://www.w3.org/1999/xlink" x="0px" y="0px"
	 viewBox="0 0 297.3 297.3" style="enable-background:new 0 0 297.3 297.3;" xml:space="preserve">
<style type="text/css">
	.st0{fill:none;stroke:#00A8D9;stroke-width:13;stroke-miterlimit:10;}
	.st1{fill:none;stroke:#323232;stroke-width:10;stroke-miterlimit:10;}
	.st2{fill:none;stroke:#323232;stroke-width:10;stroke-miterlimit:10;stroke-dasharray:12.3158,12.3158;}
	.st3{fill:none;stroke:#323232;stroke-width:10;stroke-miterlimit:10;stroke-dasharray:12.368,12.3684;}
	.st4{fill:#00A8D9;stroke:#323232;stroke-width:5;stroke-miterlimit:10;}
	.st5{fill:#00A8D9;stroke:#323232;stroke-width:6;stroke-linecap:round;stroke-linejoin:round;stroke-miterlimit:10;}
</style>
<path class="st0" d="M-518-335"/>
<g>
	<g>
		<line class="st1" x1="54.7" y1="178" x2="54.7" y2="180.6"/>
		<line class="st2" x1="54.7" y1="186.1" x2="54.7" y2="280.5"/>
		<line class="st1" x1="54.7" y1="283.4" x2="54.7" y2="286"/>
	</g>
</g>
<g>
	<g>
		<line class="st3" x1="2.9" y1="241" x2="9.5" y2="241"/>
		<line class="st3" x1="23.2" y1="241" x2="262.8" y2="241"/>
		<line class="st3" x1="269.7" y1="241" x2="276.3" y2="241"/>
	</g>
</g>
<ellipse transform="matrix(4.531438e-02 -0.999 0.999 4.531438e-02 -187.5902 283.8756)" class="st4" cx="54.7" cy="240.1" rx="25.3" ry="25.3"/>
<g>
	<path class="st5" d="M226,62.4c0,1.8-1,2.8-3,2.8c-3.5,0-17.3-0.7-41.5-2.1c-0.6,23.3-0.8,39.5-0.8,48.7c0,10.8,0.4,27.2,1.3,48.9
		c0.9,21.8,1.3,38.1,1.3,48.9c0,1.7-0.4,2.8-1.2,3.3c-0.3,0.2-1.6,0.4-3.9,0.7c-5.5,0.7-13.6,1.1-24.3,1.1c-11.9,0-20.2-0.4-25-1.1
		c-2.6-0.5-3.9-1.9-3.9-4.3c0-10.8,0.5-27.1,1.4-48.8c0.9-21.7,1.4-38,1.4-48.8c0-7.2-0.4-23.2-1.1-48c-18.4,1.8-33,2.8-44,2.8
		c-1.5,0-2.2-0.5-2.2-1.4c0-1.2,0.6-4.7,1.9-10.6c1.5-6.4,2.3-10.3,2.5-11.7c0.3-4.3,0.6-8.6,1-13c0.6-6.9,1.7-10.3,3.3-10.3
		c0.2,0,0.8,0,1.9,0.1c14.9,1.9,36.9,2.9,66,2.9c8.3,0,23.5-0.9,45.8-2.6c11.9-0.9,18-1.4,18.1-1.4c1.8,0,2.9,0.1,3.2,0.3
		c0.3,0.2,0.5,1.1,0.6,2.7c0,2.5-0.1,5.9-0.3,10.3c-0.2,4.9-0.3,8.3-0.3,10.3c0,2.3,0.3,5.7,0.9,10.1C225.7,56.9,226,60.2,226,62.4z
		"/>
</g>
</svg>
